<svg width="16" height="14" viewBox="0 0 16 14" fill="none" xmlns="http://www.w3.org/2000/svg">
<g id="Group 148">
<path id="SF Symbol / chevron.forward" opacity="0.75" d="M16 7C15.9922 6.72379 15.8903 6.48704 15.6787 6.27396L9.58276 0.26832C9.40255 0.0947012 9.19099 0 8.93242 0C8.40744 0 8 0.410372 8 0.939121C8 1.19166 8.10186 1.42841 8.28208 1.60992L13.7669 7L8.28208 12.3901C8.10186 12.5716 8 12.8005 8 13.0609C8 13.5896 8.40744 14 8.93242 14C9.18315 14 9.40255 13.9053 9.58276 13.7317L15.6787 7.71815C15.8981 7.51297 16 7.27621 16 7Z" fill="#B0B0B0"/>
<path id="SF Symbol / chevron.forward_2" opacity="0.5" d="M12 7C11.9922 6.72379 11.8903 6.48704 11.6787 6.27396L5.58276 0.26832C5.40255 0.0947012 5.19099 0 4.93242 0C4.40744 0 4 0.410372 4 0.939121C4 1.19166 4.10186 1.42841 4.28208 1.60992L9.7669 7L4.28208 12.3901C4.10186 12.5716 4 12.8005 4 13.0609C4 13.5896 4.40744 14 4.93242 14C5.18315 14 5.40255 13.9053 5.58276 13.7317L11.6787 7.71815C11.8981 7.51297 12 7.27621 12 7Z" fill="#B0B0B0"/>
<path id="SF Symbol / chevron.forward_3" opacity="0.25" d="M8 7C7.99216 6.72379 7.8903 6.48704 7.67875 6.27396L1.58276 0.26832C1.40255 0.0947012 1.19099 0 0.932419 0C0.407444 0 0 0.410372 0 0.939121C0 1.19166 0.101861 1.42841 0.282076 1.60992L5.7669 7L0.282076 12.3901C0.101861 12.5716 0 12.8005 0 13.0609C0 13.5896 0.407444 14 0.932419 14C1.18315 14 1.40255 13.9053 1.58276 13.7317L7.67875 7.71815C7.89814 7.51297 8 7.27621 8 7Z" fill="#B0B0B0"/>
</g>
</svg>
