<svg xmlns="http://www.w3.org/2000/svg" viewBox="0 0 24 24" fill="none" stroke="currentColor" stroke-width="2" stroke-linecap="round" stroke-linejoin="round">
  <path d="M12 20.94c1.5 0 2.75-.75 4.5-.75 1.75 0 3 .75 4.5.75 1.5 0 3-1.5 3-3.75 0-2.25-1.5-4.5-3-4.5s-2.75.75-4.5.75c-1.75 0-3-.75-4.5-.75s-2.75.75-4.5.75-3-.75-4.5-.75C1.5 12.94 0 15.19 0 17.44s1.5 3.75 3 3.75c1.5 0 2.75-.75 4.5-.75 1.75 0 3 .75 4.5.75zM9 3.94c0-2.25 1.5-3.75 3-3.75s3 1.5 3 3.75-1.5 3.75-3 3.75S9 6.19 9 3.94z" fill="white" stroke="white"/>
</svg> 