<svg width="400" height="400" xmlns="http://www.w3.org/2000/svg" fill="#1d1e1b">
 <!-- Extracted path data for the 'R' logo -->

 <g>
  <title>Layer 1</title>
  <g id="svg_3">
   <path id="svg_1" d="m303.815,43.27499l-243.10001,0c-9.08,0 -16.44,7.41 -16.44,16.53999l0,280.37001c0,9.14001 7.36,16.54001 16.44,16.54001l125.19,0c7.78,0 12.17001,-4.42001 12.17001,-12.25l0.01999,-32.07001c0,-3 -0.57001,-5.98001 -1.69,-8.76001l-21.36002,-53.17999c-0.87997,-2.19998 -3.41998,-3.22 -5.59,-2.26001l-27.07999,12.06003c-1.75,0.78 -3.54001,-1.01001 -2.75,-2.76001l12.09,-26.98001c0.97,-2.16 -0.06,-4.69 -2.27,-5.56l-52.59999,-20.67999c-3.56,-1.39999 -3.58,-6.44 -0.03,-7.86002l52.64,-21.17999c2.20999,-0.88 3.23999,-3.39999 2.26999,-5.56l-12.03999,-26.89999c-0.78999,-1.76001 1.03,-3.56 2.78,-2.74001l25.09,11.66c2.14001,0.99001 4.67999,0.03 5.62,-2.13l22.26001,-52.64c1.45999,-3.45999 6.37,-3.44 7.81,0.03l21.79999,52.8c0.88,2.2 3.42001,3.22 5.59003,2.25999l27.14999,-12.09c1.75998,-0.78 3.54999,1.02 2.75998,2.77l-12.13998,26.96999c-0.97,2.16 0.06,4.69 2.26001,5.57001l49.26999,19.72c4.70001,1.88 9.89001,2.23999 14.76001,0.89001c22.34,-6.16 41.03,-24.67001 41.03,-48.05002l0,-52.26999c0,-28.85001 -23.23001,-52.24001 -51.89001,-52.24001l-0.01999,-0.02z"/>
   <path id="svg_2" d="m349.54498,245.685l-40.01001,-35.26999s-0.06,-0.05002 -0.09,-0.08002c-4.26999,-3.72 -10.32999,-4.62 -15.59998,-2.53l-43.25,17.14001c-2.21002,0.88 -3.24002,3.41 -2.26001,5.57001l12.16998,26.95999c0.79001,1.75 -1,3.56 -2.75998,2.76999l-27.13,-12.09c-2.17001,-0.97 -4.72,0.06 -5.60001,2.26001l-17.63998,44.12c-2.20001,5.50998 -1.25,11.85999 2.69,16.29999c0.03,0.03 0.04999,0.06 0.07999,0.09l35.63,39.65002c3.91,3.94 9.22,6.14999 14.75,6.14999l78.72998,0c9.08002,0 16.44,-7.41 16.44,-16.54001l0,-79.59c0,-5.60001 -2.22,-10.95999 -6.16998,-14.89999l0.01999,-0.01001z"/>
  </g>
 </g>
</svg>