<svg xmlns="http://www.w3.org/2000/svg" version="1.1" xmlns:xlink="http://www.w3.org/1999/xlink" xmlns:svgjs="http://svgjs.dev/svgjs" width="1000" height="1000"><g clip-path="url(#SvgjsClipPath1037)"><rect width="1000" height="1000" fill="#ffffff"></rect><g transform="matrix(1.7042452749799752,0,0,1.7042452749799752,0,0)"><svg xmlns="http://www.w3.org/2000/svg" version="1.1" xmlns:xlink="http://www.w3.org/1999/xlink" xmlns:svgjs="http://svgjs.dev/svgjs" width="586.77" height="586.77"><svg id="Capa_2" data-name="Capa 2" xmlns="http://www.w3.org/2000/svg" viewBox="0 0 586.77 586.77">
  <defs>
    <style>
      .cls-1 {
        fill: #fff;
      }

      .cls-2 {
        fill: #1d1e1b;
      }
    </style>
  <clipPath id="SvgjsClipPath1037"><rect width="1000" height="1000" x="0" y="0" rx="500" ry="500"></rect></clipPath></defs>
  <g id="Capa_1-2" data-name="Capa 1">
    <rect class="cls-1" width="586.77" height="586.77"></rect>
    <g>
      <path class="cls-2" d="M401.38,136.66H158.28c-9.08,0-16.44,7.41-16.44,16.54V433.57c0,9.14,7.36,16.54,16.44,16.54h125.19c7.78,0,12.17-4.42,12.17-12.25l.02-32.07c0-3-.57-5.98-1.69-8.76l-21.36-53.18c-.88-2.2-3.42-3.22-5.59-2.26l-27.08,12.06c-1.75,.78-3.54-1.01-2.75-2.76l12.09-26.98c.97-2.16-.06-4.69-2.27-5.56l-52.6-20.68c-3.56-1.4-3.58-6.44-.03-7.86l52.64-21.18c2.21-.88,3.24-3.4,2.27-5.56l-12.04-26.9c-.79-1.76,1.03-3.56,2.78-2.74l25.09,11.66c2.14,.99,4.68,.03,5.62-2.13l22.26-52.64c1.46-3.46,6.37-3.44,7.81,.03l21.8,52.8c.88,2.2,3.42,3.22,5.59,2.26l27.15-12.09c1.76-.78,3.55,1.02,2.76,2.77l-12.14,26.97c-.97,2.16,.06,4.69,2.26,5.57l49.27,19.72c4.7,1.88,9.89,2.24,14.76,.89,22.34-6.16,41.03-24.67,41.03-48.05v-52.27c0-28.85-23.23-52.24-51.89-52.24Z"></path>
      <path class="cls-2" d="M447.11,339.07l-40.01-35.27s-.06-.05-.09-.08c-4.27-3.72-10.33-4.62-15.6-2.53l-43.25,17.14c-2.21,.88-3.24,3.41-2.26,5.57l12.17,26.96c.79,1.75-1,3.56-2.76,2.77l-27.13-12.09c-2.17-.97-4.72,.06-5.6,2.26l-17.64,44.12c-2.2,5.51-1.25,11.86,2.69,16.3,.03,.03,.05,.06,.08,.09l35.63,39.65c3.91,3.94,9.22,6.15,14.75,6.15h78.73c9.08,0,16.44-7.41,16.44-16.54v-79.59c0-5.6-2.22-10.96-6.17-14.9Z"></path>
    </g>
  </g>
</svg></svg></g></g></svg>