<?xml version="1.0" encoding="UTF-8"?>
<svg id="Capa_2" data-name="Capa 2" xmlns="http://www.w3.org/2000/svg" viewBox="0 0 1795.33 432.89">
  <g id="Capa_1-2" data-name="Capa 1">
    <path d="M847.8,431.99H483.84c-18.79,0-34.02-15.23-34.02-34.02V34.02c0-18.79,15.23-34.02,34.02-34.02h363.96c18.79,0,34.02,15.23,34.02,34.02V98.35c0,19.69-16.67,35.27-36.32,33.94l-284.22-19.3c-17.59-1.19-25.15,21.86-10.28,31.32l110.66,39.79c29.97,10.78,30.02,53.15,.07,63.99l-110.3,39.94c-14.88,9.45-7.32,32.52,10.27,31.33l283.79-19.27c19.65-1.33,36.32,14.24,36.32,33.94v63.95c0,18.79-15.23,34.02-34.02,34.02Z"/>
    <path d="M425.17,114.15c4.43-5.89,6.82-13.06,6.82-20.44V34.91c0-18.79-15.23-34.02-34.02-34.02H34.02C15.23,.9,0,16.13,0,34.91V398.87c0,18.79,15.23,34.02,34.02,34.02h40.33c18.8,0,34.03-15.24,34.02-34.04v-15.97c-.02-17.9,13.84-32.75,31.7-33.96l111.45-7.57c12.18-.83,23.87,4.93,30.63,15.1l40.76,61.27c6.31,9.48,16.94,15.18,28.32,15.18h46.76c18.79,0,34.02-15.23,34.02-34.02v-17.41c0-6.77-2.02-13.38-5.8-18.99l-75.14-111.65c-8.09-12.02-7.68-27.84,1.03-39.43l73.08-97.25Zm-133.34,34.12l-58.09,77.02c-6,7.95-15.18,12.88-25.12,13.47l-63.03,3.78c-19.56,1.18-36.07-14.36-36.07-33.95V119.58c0-19.69,16.67-35.27,36.32-33.94l121.13,8.22c26.96,1.83,41.13,32.85,24.86,54.42Z"/>
    <path d="M1304.51,432.89h-362.87c-19.09,0-34.56-15.47-34.56-34.56V35.46c0-19.09,15.47-34.56,34.56-34.56h362.87c19.09,0,34.56,15.47,34.56,34.56v93.38c0,19.62-16.56,35.18-36.14,33.95l-216.15-13.55c-19.52-1.22-36.05,14.23-36.14,33.79l-.15,33.86,.12,33.79c.07,19.57,16.6,35.05,36.14,33.83l216.19-13.52c19.58-1.22,36.14,14.33,36.14,33.95v93.39c0,19.09-15.47,34.56-34.56,34.56Z"/>
    <path d="M1760.77,.9h-362.87c-19.09,0-34.56,15.47-34.56,34.56v100.18c0,17.91,13.89,32.75,31.76,33.94l114.04,7.57c1.2-1.57,1.54-3.72,.67-5.66l-16.13-36.04c-1.06-2.36,1.38-4.77,3.73-3.68l33.62,15.62c2.86,1.33,6.26,.04,7.52-2.86l29.82-70.52c1.96-4.64,8.54-4.61,10.46,.04l29.21,70.73c1.18,2.94,4.59,4.32,7.49,3.02l36.37-16.2c2.35-1.05,4.75,1.36,3.7,3.71l-16.27,36.14c-1.3,2.89,.08,6.28,3.03,7.46l70.38,28.17c4.76,1.91,4.75,8.65-.02,10.53l-70.42,27.9c-2.96,1.18-4.34,4.57-3.03,7.47l16.31,36.11c1.06,2.35-1.34,4.76-3.7,3.71l-36.34-16.2c-2.91-1.3-6.32,.08-7.5,3.03l-28.18,70.46c-1.9,4.75-8.62,4.75-10.53,0l-28.27-70.41c-1.18-2.94-4.59-4.32-7.49-3.02l-36.28,16.16c-2.34,1.04-4.74-1.36-3.69-3.7l14.39-32.11-112.92,7.54c-17.87,1.19-31.75,16.03-31.75,33.94v99.81c0,19.09,15.47,34.56,34.56,34.56h362.87c19.09,0,34.56-15.47,34.56-34.56V35.46c0-19.09-15.47-34.56-34.56-34.56Z"/>
  </g>
</svg>